<svg width="80" height="80" viewBox="0 0 80 80" fill="none" xmlns="http://www.w3.org/2000/svg">
<rect width="80" height="80" rx="5" fill="white"/>
<circle cx="40" cy="40" r="27" stroke="black" stroke-width="6"/>
<path d="M26.4375 45.8672L29.8359 30.9375H31.793L32.5664 32.7891L28.9453 48H26.8008L26.4375 45.8672ZM25.1133 30.9375L27.9609 45.9375L27.4688 48H25.0312L21.3281 30.9375H25.1133ZM34.9922 45.8555L37.8047 30.9375H41.5781L37.875 48H35.4609L34.9922 45.8555ZM33.0703 30.9375L36.5156 45.9492L36.1172 48H33.9844L30.3047 32.7773L31.1133 30.9375H33.0703ZM51.4453 30.9375V48H47.6367V30.9375H51.4453ZM56.6367 30.9375V33.9023H42.5508V30.9375H56.6367Z" fill="black"/>
</svg>
